<svg width="12" height="12" viewBox="0 0 12 12" fill="none" xmlns="http://www.w3.org/2000/svg">
<path d="M4.82742 2.64516L2.82742 0.645159C2.73263 0.551268 2.6046 0.498596 2.47117 0.498596C2.33775 0.498596 2.20972 0.551268 2.11492 0.645159L0.114923 2.64516C0.0351915 2.74231 -0.00555512 2.86564 0.000609915 2.99116C0.00677495 3.11669 0.0594104 3.23543 0.148278 3.3243C0.237145 3.41317 0.355891 3.4658 0.481417 3.47197C0.606943 3.47813 0.730275 3.43739 0.827423 3.35766L1.97117 2.20766V11.0014C1.97117 11.134 2.02385 11.2612 2.11762 11.355C2.21139 11.4487 2.33856 11.5014 2.47117 11.5014C2.60378 11.5014 2.73096 11.4487 2.82473 11.355C2.91849 11.2612 2.97117 11.134 2.97117 11.0014V2.20766L4.11492 3.35766C4.21049 3.45007 4.33823 3.50172 4.47117 3.50172C4.60411 3.50172 4.73185 3.45007 4.82742 3.35766C4.92131 3.26286 4.97398 3.13483 4.97398 3.00141C4.97398 2.86798 4.92131 2.73995 4.82742 2.64516Z" fill="#AAAAAA"/>
<path d="M11.9479 8.99859C11.9479 8.86517 11.8952 8.73714 11.8013 8.64234C11.7065 8.54845 11.5785 8.49578 11.445 8.49578C11.3116 8.49578 11.1836 8.54845 11.0888 8.64234L9.94505 9.79234V0.998596C9.94505 0.865988 9.89237 0.738811 9.7986 0.645043C9.70483 0.551275 9.57766 0.498596 9.44505 0.498596C9.31244 0.498596 9.18526 0.551275 9.0915 0.645043C8.99773 0.738811 8.94505 0.865988 8.94505 0.998596V9.79234L7.8013 8.64234C7.70415 8.56261 7.58082 8.52186 7.45529 8.52803C7.32977 8.53419 7.21102 8.58683 7.12215 8.6757C7.03329 8.76456 6.98065 8.88331 6.97449 9.00884C6.96832 9.13436 7.00907 9.25769 7.0888 9.35484L9.0888 11.3548C9.18437 11.4472 9.31211 11.4989 9.44505 11.4989C9.57799 11.4989 9.70573 11.4472 9.8013 11.3548L11.8013 9.35484C11.8952 9.26004 11.9479 9.13202 11.9479 8.99859Z" fill="black"/>
</svg>
